<svg xmlns="http://www.w3.org/2000/svg" width="960" height="820" viewBox="0 0 960 820">
  <style>text{font-family:'Humor Sans','Comic Sans MS',cursive,'PingFang SC',sans-serif;}</style>
  <path d="M380.3122292025696 19.687770797430375 C380.3122292025696 19.687770797430375, 380.3122292025696 19.687770797430375, 380.3122292025696 19.687770797430375 M380.3122292025696 19.687770797430375 C380.3122292025696 19.687770797430375, 380.3122292025696 19.687770797430375, 380.3122292025696 19.687770797430375 M380.2914083291501 28.283670520934344 C382.68121137791314 26.851687566035107, 384.6203070705582 23.951863451019847, 388.7606061304373 18.842569954061606 M380.7390331323361 28.6175628782527 C382.3312595360317 25.458253457066782, 385.32188104656086 24.176252591610535, 388.66899462377086 19.9114814811424 M379.8753817733857 36.84631896956688 C388.24448990252955 28.918383994123566, 393.9537568704626 22.899818283922357, 396.9158755566261 18.190115884620333 M379.5073051272511 36.76466979841578 C384.24434544850874 31.454653065321292, 389.03806986132 27.110915909440724, 396.362268171015 18.94402558896308 M379.70862580286655 43.275807601899274 C384.8032683519722 40.02481534219144, 390.87227607573135 31.07918087730312, 405.5586370963025 21.594039168650994 M380.92984852985376 44.207284952714055 C388.7536891225287 35.75811084964698, 398.03071836790775 26.88251394040739, 406.14848042376747 20.059512830642724 M382.2562261174804 52.909788167147646 C385.7977745449387 46.52223582830369, 393.470486177058 39.14334936598625, 415.0188689004347 19.15903333912931 M380.7639124113641 53.76137891951103 C387.2538978351391 47.49895330335029, 395.47101736064934 39.277018233721655, 413.7122124078669 19.320357286720434 M379.8602348457696 63.713614540298636 C395.45506270071985 49.29341628182802, 410.4749616228164 33.915100619981715, 423.5214651990796 20.39126049144546 M379.36132456664075 61.84309721021728 C389.92994818349337 54.15746131646475, 397.12680707977046 44.266813573858244, 423.45316216320236 20.645580550720926 M381.2076815993819 70.75869577681911 C395.75420661264354 54.73302133226, 414.374146952967 35.35713092594825, 429.77978090842913 20.001664522995057 M380.76998121947753 71.54701236074493 C398.55352632875076 53.16978553229931, 414.31742354174247 35.07164366511983, 430.6725450097203 19.71029060536029 M379.21141583552145 78.0563671856669 C402.5275422071331 58.76630477446012, 421.7706851088723 38.90996601370658, 439.52477734589337 19.40797912545259 M379.81536550958674 78.6999820395288 C400.74853010732625 59.29577428057639, 422.2356880049955 37.88899651807688, 438.82865299022774 20.583019043644843 M379.4502790366533 87.50943929136629 C397.3666034345933 68.50391628347569, 416.8237352756529 51.48918434102639, 449.38818538978865 19.95720162147307 M380.28393969370717 87.53257569748715 C400.1971591706304 68.24224425643426, 419.95756258985296 47.08073056147301, 447.5557565298603 20.198535811842014 M378.9027928769256 97.38822918713029 C405.2651806706128 68.74181626247945, 431.8750356165818 46.60751386370965, 457.7611756657001 19.937795914532117 M381.11411097376634 95.92315582862878 C400.9705734413087 75.26658371420984, 422.24765483395737 53.67056691695753, 457.2442263377624 20.31340721001805 M385.9992166973905 98.54576048028605 C404.60888097218583 80.71110037418667, 424.4380530922037 59.68841023451651, 466.0161582029985 20.10507378855328 M384.937019638301 99.93925164486109 C404.3214285572699 80.25880648062206, 427.3305139257186 59.460853506097614, 464.688135282936 18.770950445503395 M394.30555263894735 100.91871153443842 C415.55587848234154 77.39643200692167, 439.702208854653 55.34102715421409, 473.8357433146941 20.976513602879088 M393.8943212841938 100.67531392315655 C410.0917340435115 83.5531299440594, 428.00065135096963 65.4698973128594, 473.1258425652005 19.0146039659626 M399.7015036631438 100.31386850820418 C425.4655191109204 76.09091898062022, 446.551564328359 55.22801023974495, 483.040602322247 19.671512158402987 M401.5000658261549 99.84241707404723 C427.7831011604917 74.2389204341005, 454.4693988664628 46.90617718952252, 481.40802927814906 19.098216266550306 M408.42086052405335 100.7429520980781 C430.344565766046 78.66252151158054, 451.99493127581076 59.92139314299391, 490.17326286331405 18.40380982114954 M410.47959196841015 101.21978284780518 C430.6055090879502 79.14118812102724, 453.0298004069513 56.80069783622271, 490.3167364505202 18.84787746719557 M416.54099344193395 99.25867795857097 C448.07387893545865 67.97299019252924, 482.6625020703742 38.341329172776874, 499.5547863252072 21.24351819712787 M418.3846419242413 99.58627422297351 C446.4990664585694 72.31092509117993, 475.5045704937835 42.64179990700106, 499.77539041383636 20.28088175479971 M425.4933469852812 100.48017469690197 C442.82918019338103 81.6153075124985, 461.6191955192779 66.06713217605311, 508.271148442191 20.230563353595688 M426.21917844645685 100.2350960107427 C456.1059966662671 71.38983983553835, 486.18799716788396 39.56061641144791, 508.03773307068184 19.567417773738345 M435.2895775037669 100.22122725614882 C453.5461653444616 82.2925403081366, 473.18536282210476 60.779117307005684, 515.9289893348636 18.926702970403685 M434.6317023632538 100.26303504299268 C454.2928256034117 80.52684787015062, 472.79077351553815 62.08550606601146, 515.2294990454496 19.27375658828145 M445.0090367147764 101.14690026284931 C467.350144108724 76.8994747739143, 487.6497792289562 57.89491282603715, 524.0195706244428 20.663526520764158 M443.08029231264373 100.29449050546745 C465.0785799743043 76.42312927689265, 488.12849831516854 55.53000768707904, 523.6730172742937 18.990242875004135 M453.7683282013392 100.52062047572666 C482.70849210312554 71.31135798493666, 510.97920871842894 43.88360976496474, 534.9294505678188 18.60914669641191 M452.27668201412354 99.85268857663105 C483.7328283596001 68.95414570478496, 513.5348671989634 39.09096325983754, 532.4168641519262 19.420153533144404 M460.05823573220846 99.3152746472472 C490.35404367071504 71.43171933791825, 518.5100110310957 42.875412696666366, 540.3244296914017 18.243950468005238 M461.7238237125512 100.3857889416544 C492.9261684825162 68.0878364038942, 523.5965571257746 36.42416282084512, 541.7956668350489 19.61854115947884 M468.02622069639864 98.33353928535338 C491.29808099814716 76.50497033442512, 514.5348804513847 52.9272731723122, 549.9072687530465 18.02158612926968 M470.3988498060065 101.00862019913885 C489.083707397148 80.05861500245285, 509.8718144885949 61.45730531387836, 549.6644569445597 18.808354270939525 M478.60445684856836 98.48373147883746 C500.66226092586186 78.37234393992857, 518.1697053525284 61.061630748891176, 559.61217216775 21.4360712779865 M478.6575314764644 100.96757826176292 C493.4853990916308 84.06317981358494, 510.61520159985497 67.05588820951058, 558.8740865965138 19.999640690005887 M486.60233539965816 98.36493029220571 C518.7415385905153 70.72334485693702, 548.9042589771814 40.76602644097117, 567.4396989915211 20.18692577141516 M487.08017380237374 99.82054410056628 C516.6585960832801 67.96135807393746, 549.1069072153306 37.16585062805971, 566.6346349275691 19.53807298493154 M492.9698324575239 100.04633898252992 C518.3415961890668 74.97334823954449, 543.89088903524 51.34826159941642, 575.6329912403933 21.631770556336555 M493.9811697460568 101.23619703512692 C519.8104434899385 74.18038838994809, 547.2449144249582 47.75145857945871, 576.4521115029686 19.683500062033826 M504.35038884629023 101.78016940025769 C526.6585791657866 76.56986353262327, 553.3316448398614 52.20436015666133, 581.3203652275922 21.892081682171337 M504.2400862078154 100.36074948868855 C527.7183804715391 75.9042671152624, 553.2478382202379 49.38632836609799, 581.1319519239628 22.404935444319264 M510.29351960859714 98.76665375833547 C533.9838139900785 77.75417599176876, 555.8109684296207 55.68707260079785, 582.3093493557458 30.350726119993276 M511.5988297558329 100.03695334874541 C533.291497797191 79.83306216321955, 552.8073652172158 59.10137369038935, 580.5544827176869 31.623892463187264 M521.9711183781578 98.76194233469256 C538.9231274372379 80.90483274829397, 558.5205337181034 65.3547746001254, 580.6269975003407 40.944532599947415 M520.0398354994556 100.47692247592941 C542.3932227541454 78.34040597304994, 565.881221985381 54.92517429088942, 579.9491867183702 40.36967439741546 M528.5253669995061 98.931713231119 C542.2836124236882 83.56873842162912, 555.3348057289897 72.28636521688661, 581.0091227766466 49.20528466962915 M528.6182658562701 99.64065174646356 C540.0642756860805 89.64986521129714, 550.7835432443442 78.1805474827462, 580.6493382804888 47.70602099781525 M536.2253895750437 98.8209136278553 C555.9907993877661 84.3327394537625, 570.3309231966796 68.54783667071695, 581.9992193577052 57.08661240774565 M536.4747297180667 99.57251644606058 C550.9584647747104 86.35276524146425, 562.6259119281194 75.45847910418811, 580.8932375603855 57.63748101714099 M547.6700450097555 100.25258811127574 C555.0942326715873 90.1107725119713, 562.7830021592691 81.30639576123161, 581.3683119854265 63.9405697275522 M545.4306684209431 100.6115751590001 C553.4509376067832 90.91556519939489, 563.0418193838555 83.50484640074498, 580.3647148803409 65.6352237146074 M555.0513095822796 101.53759027880488 C565.5456303451205 92.56407126836697, 574.2352287431587 80.24305214947441, 581.9872554902516 75.50430095353552 M553.7474455378422 100.38190942126873 C562.66526724006 91.44354625273714, 571.6349392158195 82.09162165539922, 579.477129338827 73.81603514114174 M564.5337335656008 101.63597670939342 C568.0031532929191 96.14794111168848, 572.9306259046169 86.89798864612594, 578.5741045673524 82.67994746191407 M563.3406737780957 100.62258569920895 C568.6457016299026 94.31834365162193, 574.9096889324285 88.75324927008853, 580.0369838892192 81.90703169330067 M571.1284055016108 101.47322223096441 C574.9686430035099 97.67275248895082, 577.8055408876119 94.26928182033117, 579.9632440610607 91.2886194406516 M570.8831014275124 100.39679103786673 C573.7832071984234 98.53252605435692, 575.1202765239193 95.31868260581919, 580.917354042305 90.91052189517367" fill="none" stroke="#4CAF50" stroke-width="2.5" stroke-linejoin="round"/>
<path d="M380.1433415602802 19.037382244743373 C432.0541505236553 19.853346086506452, 480.5513683566986 19.379926807711414, 579.6187725348635 18.9351777270036 M379.40502902180776 19.43858428193464 C421.6080070933638 18.951349504133365, 463.99934388116884 20.38054760099457, 580.8707860482396 19.77212770951996 M580.3920379465766 21.457749734605922 C578.7020493246247 40.31483063848775, 578.2039664580639 56.91140084479446, 579.3971820337355 101.07695719608736 M579.6319541234138 19.357799825426888 C580.3561787844468 45.30023657132658, 579.9196337797572 69.17080443735465, 580.8462821634673 99.60768263357711 M580.1665504763271 98.42951534018688 C537.5350674445788 99.27568884639597, 491.18180318275375 98.97489685889869, 379.44623641429064 100.07745941049457 M579.9663600648578 100.05959341303594 C505.34930310145364 100.11355326314985, 433.0054988734441 100.62807063863615, 380.6071299735084 100.74187595598409 M381.7022587334459 100.1541503221286 C379.6122425635915 70.0244708462173, 379.27365347431214 44.40371883685318, 381.96513006711155 20.57796221468101 M380.45229741475526 99.12148034480953 C380.37527424901424 68.55363614159207, 379.6705213758469 37.404417272465956, 379.82326343382323 20.290654600205073" fill="none" stroke="#4CAF50" stroke-width="2.5" stroke-linejoin="round"/><rect x="384" y="24" width="192" height="72" fill="white" rx="6" opacity="0.85"/><text x="480" y="54" text-anchor="middle" font-size="28" font-weight="bold" fill="#4CAF50">😌 平静态</text><text x="480" y="82" text-anchor="middle" font-size="18" fill="#999">Normal</text><path d="M19.691342134898576 240.3086578651014 C19.691342134898576 240.3086578651014, 19.691342134898576 240.3086578651014, 19.691342134898576 240.3086578651014 M19.691342134898576 240.3086578651014 C19.691342134898576 240.3086578651014, 19.691342134898576 240.3086578651014, 19.691342134898576 240.3086578651014 M18.894145709559183 249.78165321836678 C23.548608157235638 246.04884106871293, 26.817566184459757 241.24734937424557, 28.129248309625407 241.19268667585493 M19.86137937765111 248.9248526271957 C23.312660083570716 245.90936081260406, 26.53331979254888 242.0744166406893, 28.714555633873516 240.86841215202793 M20.800302030332585 256.52114363511015 C25.473023039136045 253.20376057361366, 27.868057952248762 250.1730442345382, 37.68509750954549 240.15573444816044 M19.19342415005423 256.6366333387735 C26.052760435551065 250.3907492712848, 31.30025999711237 244.84074789766382, 37.31092068509831 239.7173956545812 M19.18441850950857 266.94571278012154 C26.74527861594971 259.63907644298513, 34.07051891927944 253.3796601369352, 43.94171886465565 239.87142070702117 M20.19889657836932 266.5235204039887 C29.141273132547937 257.03424996421353, 38.2554371895229 246.31838371453438, 44.27446997507781 239.7163865926124 M21.307985189335366 272.3408244941221 C26.873515858709304 266.3564125655871, 36.801638534117316 260.03761446275604, 52.3511709391448 240.87728487040556 M19.449270061851447 274.2634322153295 C32.69430457366698 260.0943346769462, 45.84274337674773 247.81438001763522, 53.63549113437362 239.97793633863483 M20.14843203829375 280.91008503740846 C31.853819302310708 272.47547506628064, 39.88123390849459 260.6800648095189, 61.084259898765 239.137106756141 M19.43715372285307 282.51773103530235 C36.32647303547744 266.7085440031341, 51.13312169113302 251.2118497941319, 61.61695767521812 240.97010984881126 M20.238310596909756 291.65576680230356 C31.393576259565144 278.8364061056806, 41.315173757272944 270.2753124179266, 70.88336658395781 240.03697097668598 M20.101780501754774 291.4067190793134 C34.02345719231083 276.9094090657921, 46.99595483949523 263.9700551565836, 70.4696891965096 240.9848090294656 M17.949398237897267 299.4091635141698 C37.54493011538677 283.4730670679917, 51.32685331254786 267.83745925795625, 79.78507264008783 242.17133332705495 M20.29170954077636 299.80844918639 C43.220745611093044 276.35572569716646, 64.43068973489231 254.6700860396596, 78.21694899252992 239.90493578291668 M18.46036863767089 307.8311591565919 C37.069827818740386 289.62479304726673, 54.56073509251879 274.23886059384125, 86.70007075169816 239.08404826415295 M20.04808456095116 308.8489963545259 C35.419494908593784 292.0883773301154, 51.86058822740041 274.45928665666, 87.77883054703061 241.05457393402526 M20.46076905772903 317.2796672929969 C41.3639556253624 296.2943245489745, 57.36991686207086 278.38320861534777, 96.8881711417632 241.21226698790264 M18.760431175306543 316.0873856347052 C48.31711310273319 288.18391744273265, 75.13853194990591 260.12330162612096, 96.8071534661182 240.7186035535642 M21.2103995011013 322.81968447686893 C47.80472534754636 298.29300204335027, 75.04756289081634 271.9974138066236, 104.85236082022989 241.7791359145183 M22.983977735820083 322.4380253338063 C48.383341193603044 297.20555619614095, 73.09443036074035 269.8676750337234, 104.16840351086233 239.69958219695283 M32.97461238826268 321.7887184097279 C59.028820541487434 294.8384151763283, 87.70675262187964 264.38491184012315, 114.55846812435534 241.47757868613039 M31.47116485332 322.30806554048104 C55.458031754697956 297.7929014395531, 77.71632743374568 274.9890007129252, 113.50509403730483 239.7102317629402 M39.90349727554586 320.5902896973242 C69.68311889132976 291.4275573318015, 98.13820111641455 264.57333644208876, 121.47249413748443 240.58879876190204 M39.52009167115969 321.6891916284637 C62.76219343875186 298.47129151003054, 87.74891354401163 274.8250222114566, 121.1531618994093 241.1657719989846 M47.48095404022011 321.424172009907 C77.0547976821523 297.63038490453306, 104.10205909866687 269.03098435446384, 129.38142067290343 238.94778700850705 M48.50969303195155 322.8841993751432 C78.86218354497181 292.9726083811427, 108.42898903853134 261.43695166628845, 129.81950451480662 239.70570122062577 M55.91544475266213 320.56181968384607 C85.80152847915001 296.0909583016677, 111.43691395054847 268.16113750932544, 139.48605010518227 238.91248361603738 M57.42861031128402 321.37946668462513 C75.23714489614609 303.08662890198707, 94.94668229124015 284.4075639528679, 138.53293650298272 239.62398464031406 M66.31145183112429 324.1685977038149 C94.8344430950067 290.8825115991541, 125.67974780840441 262.325970834802, 146.02924029261317 240.89594648221887 M65.24476459244853 321.4610964775334 C84.44002132928816 304.5667523222945, 102.55950742454056 284.7861566434983, 147.62382745046153 241.10205015490442 M74.38263781959103 320.7826199169068 C103.97161141870261 293.2700061236159, 132.84113530141107 260.1959579858771, 155.94089192050947 241.92331340230518 M73.73708502244996 323.2137379955594 C96.18660711369168 301.9746660171931, 118.60133364912366 279.205154432035, 156.42013957866973 240.96210850898805 M82.35224208330453 320.8052528961367 C110.73145609573383 292.5823983629612, 139.19021337576083 265.12017816160875, 163.3849276972997 239.6933910279552 M82.75132611572323 321.8630572380912 C109.80879422932814 295.67085638041726, 137.0536150405 267.87245326232556, 164.59348097640688 240.66811586071137 M90.77959357705363 321.28317828999144 C108.17716650295394 303.4225063655999, 125.54260477191175 283.74942159868993, 174.3426345821741 241.80497154927997 M91.3871074920135 323.06202746408513 C117.5092296749399 295.72493833334295, 143.58202538837253 269.7876961417733, 172.1200180945036 240.72952137378033 M97.30792811186227 322.61715917841235 C125.5719787500021 294.78137003123595, 149.97501774843602 271.35507553631123, 181.004114088389 242.19689714056125 M98.70095435640097 321.41838338525383 C123.8374602244459 298.56657177680285, 148.75699429908954 272.51938551381573, 181.13973234122255 240.39523195126978 M107.7576408272343 320.85908532552077 C140.23909329758766 290.51365000056154, 169.66284287916116 258.75193622858285, 190.92271053401834 241.5021794752579 M107.7677537299021 321.7962357798136 C134.3235303644466 296.46783206030676, 161.15110885643918 268.0430038344636, 188.89172114497978 240.61201418072164 M116.53892477970953 323.03023860804143 C135.15045808322301 302.68134160128545, 156.1510489892404 285.5401852312108, 198.16786582664722 239.5826594845457 M115.03328839736201 322.5874021041472 C143.71356675082632 295.1313521046566, 170.14803080209987 268.1586174271441, 196.99538768445066 241.11207887735094 M123.19797719825429 321.12878493237247 C146.7296068444586 301.04082563250535, 170.49836812864734 275.6182477081574, 208.2081543796508 239.96677468034764 M123.81307540544262 322.31074318474924 C145.59208196665966 300.4967708832358, 166.9129486346431 281.19291751112803, 206.11079572447008 240.49664400739118 M133.0267439111967 324.2308518462803 C152.24173106595163 302.6347574336278, 169.71965220066923 286.67881410731616, 215.06970205773513 242.1299831513944 M132.6303074004099 322.45260402742684 C154.7633931768926 300.6351889937073, 176.31351238098543 278.9718613291388, 214.14187007446347 240.72636103121792 M142.13826148330577 322.6728442373807 C171.2688871300661 290.58616416377333, 203.7201544280219 256.8171166116034, 222.93095476054566 240.48312386472168 M141.80777058077436 322.8426580649141 C170.977593912322 293.3778885111582, 200.1271991624741 263.818200702772, 221.98225119152156 241.8454816404388 M151.5964816178301 321.6532206240189 C170.559194393797 303.02222916830385, 187.89111804703424 282.5151819994923, 220.27274772141203 248.57068797320258 M148.83188425456876 321.9608567393013 C175.51568444646225 298.35974838802355, 199.6136323608302 272.1540603818301, 222.43908382683242 249.34452054544533 M157.6352107027918 323.42750252953766 C174.81123037052745 307.40184748506874, 187.87112679718263 293.0238399239742, 220.62066693053384 256.7908284889887 M158.28871444452218 323.28234352961624 C177.98899919708705 302.38526545692656, 196.8281778459336 285.60891210112555, 221.2502658615052 259.5928814129773 M164.77925254385462 324.00589417523395 C179.92880998665083 307.2728347227584, 193.60132712324665 293.79635555230294, 223.5945038412422 266.6474411648205 M167.3624705166956 322.7276713091216 C180.06860935657477 309.3973675350859, 192.50278842962823 295.1195693052585, 221.5544317579267 267.3175695248658 M175.98616178253397 320.87127839771193 C186.33192284875457 308.6886382100798, 199.5880843643458 295.77034849599585, 222.34041781630893 275.477481888661 M176.0181456590265 322.5350087179476 C189.36359901135435 307.2060771011809, 205.41093515839486 293.28849065515635, 221.5725672979379 274.9059309489082 M182.64034072636625 323.014406566164 C200.2753091785369 306.3078408417961, 213.27958676822587 294.27027697671423, 223.42940302988 285.74447831020086 M182.8921656868176 321.4609849086743 C192.49788562188033 314.62439385557906, 199.77443308061595 306.1110811147202, 222.80933891542733 284.30063473545516 M191.7922167487888 321.16334797597807 C202.23486021251097 315.57326786075066, 206.82899365362545 306.9855357340333, 220.3007978228128 292.946526667644 M192.81435015170595 322.66320225984043 C201.29047319090412 313.02572335355813, 208.21629183151467 305.4753954244192, 222.18202874758248 291.8677527958259 M200.03201922896866 320.3481049446484 C206.16087936750083 314.7886630149704, 212.66085693536928 309.74386275586295, 223.62343257852223 302.6888229896074 M200.60076197709103 322.3809247740721 C209.34674249476262 314.65633417293975, 217.29279917968682 306.8316769861444, 221.6422210445241 300.5954694171531 M208.78191295149404 322.6158162450125 C211.45099989048566 319.4221034885985, 216.1439766664262 316.6158422203147, 221.7685645797363 308.51605492830765 M209.01379222709832 321.87986704422985 C213.77953154112336 318.6718487033921, 217.28324389266635 313.4428311004567, 221.1855482555883 309.6082713007706" fill="none" stroke="#FF9800" stroke-width="2.5" stroke-linejoin="round"/>
<path d="M19.787201065900447 239.45186259515694 C98.4197290732978 241.10769327057568, 178.30725206760533 239.875489519102, 220.12452800851986 238.7495614250316 M19.261782736914085 240.3759650367779 C91.44798804542529 242.4720034197839, 163.94341700664495 241.46124204418734, 220.83444495466833 239.16662795815387 M218.74565760065042 240.29213857714765 C219.60305249883143 261.3972960883257, 220.8548550435228 280.7986382895308, 220.0937971608409 318.70485559110074 M219.8747886745865 240.66049158421305 C218.31465805692272 262.3093483726576, 220.03870067784848 285.0254213954884, 219.14921361434358 319.29283965063297 M219.82694544168396 319.60364097280865 C152.68964954679936 322.77614344971374, 84.34333421267901 321.4604936639973, 18.6408295174054 319.0207446502101 M219.82946520918216 320.0132044635095 C153.7489528558695 322.1508766480819, 87.20433239602043 322.0733036556726, 20.57526579436537 319.2476136150194 M19.671130078601454 320.1269152606768 C21.247944894755268 294.37595784280995, 20.25729048707028 268.0513569629488, 20.658878408746798 238.84719020183115 M19.79402518745371 320.3450563377158 C19.009171860171552 296.53647111792066, 19.875910464691575 272.52817209933977, 19.423980250483453 239.93534542186504" fill="none" stroke="#FF9800" stroke-width="2.5" stroke-linejoin="round"/><rect x="24" y="244" width="192" height="72" fill="white" rx="6" opacity="0.85"/><text x="120" y="274" text-anchor="middle" font-size="28" font-weight="bold" fill="#FF9800">🤔 酝酿态</text><text x="120" y="302" text-anchor="middle" font-size="18" fill="#999">Warning</text><path d="M380.00357133746814 239.9964286625318 C380.00357133746814 239.9964286625318, 380.00357133746814 239.9964286625318, 380.00357133746814 239.9964286625318 M380.00357133746814 239.9964286625318 C380.00357133746814 239.9964286625318, 380.00357133746814 239.9964286625318, 380.00357133746814 239.9964286625318 M379.16720668230164 247.6890503345003 C383.67066609031275 244.8720464210925, 385.9571549827331 243.837176399344, 387.42758069538314 239.21959911626797 M379.8796803550176 247.99391853305323 C383.0557908848963 245.9390051819648, 385.24451990503144 243.62752447965988, 388.0197958829175 239.59862853874094 M380.29362115201775 258.2405125547223 C386.49742865622096 253.68948866875039, 388.0846878565928 246.3837085209421, 396.06954636205285 241.70888578561275 M379.3759240059252 256.33606998442053 C385.40127025757573 250.68799954853446, 391.2468904372958 245.3841541359597, 397.5013012077213 239.41443316478205 M378.09336000122113 265.5776881460481 C385.45076474380744 261.37129525831017, 392.1511235420643 252.1487332464987, 405.0313085852899 240.3074666184876 M379.26747969821514 264.85346909695244 C386.9361925127675 259.87942914276425, 392.9198319096173 253.0086459836774, 406.24561940101694 240.59153295157066 M378.9922848601082 274.2724760133192 C385.34279303887274 265.6882293246856, 395.5062802327359 258.3087001768722, 412.95659328972334 239.6925270651443 M379.1392484773856 274.05085243732947 C392.2754647361589 261.3736499307794, 405.0654027921107 249.00418394416153, 413.51175501210537 240.13549876153013 M380.20897113516213 281.30294768652584 C395.96969690501743 266.14524679141726, 411.3973068097528 250.95106748668366, 423.525215521528 239.32694636434067 M380.07899521027963 282.5968121140364 C395.9634905064332 266.30717228807225, 410.697691956715 252.92362184701307, 422.21102229226034 239.95271793650085 M380.15356919901495 290.22520417425267 C390.4492441749142 280.3535695045029, 402.04351534396244 268.2588631442524, 430.90342382585555 240.81519760036926 M380.09825894870716 291.0124775640734 C390.0631901512896 280.1469267244747, 401.4121888170601 270.1246783817474, 431.59614045457806 239.84230342346936 M378.9221796028461 299.47606951010704 C403.2988093295486 274.53110634297144, 428.70631199442397 251.9553019007648, 437.6900880717391 241.58993713654425 M379.91922824150765 299.603825730063 C397.8775186442516 282.2673490821759, 415.3554252637442 265.3659556086113, 438.47128246737395 240.51285594625207 M379.7476673732494 306.4351115094199 C404.02616717241665 284.74454023152896, 428.71472008555656 259.79119380744294, 446.4895110212983 239.5405397664136 M379.5476721609129 307.47413099043627 C395.31920119223076 291.9562731459357, 412.08714186969416 275.7197661522474, 447.68970164156104 239.291009730823 M379.44504350053796 315.6797063785758 C401.525434203315 295.12069136368694, 421.9034446837335 272.0533398750551, 457.3722550974548 241.07062696461142 M380.7361355622287 315.8500425452017 C405.8443891144045 291.13979100503485, 432.7319379416575 264.2104740228436, 457.01822215342094 239.04140387074582 M380.1363218921588 324.4453183388143 C404.2051141905042 297.92390318075905, 428.93153117506404 276.344048735646, 463.854401830593 239.49863071905622 M381.8730869446523 322.29593022204136 C414.07278632963397 290.5005815626168, 446.1401781892767 257.6086047794946, 465.7614452487006 240.24590250491974 M390.7138499415785 322.08593444485194 C409.2912085229663 306.6069585189359, 423.89523838515345 288.8729348643617, 471.7860475252683 238.54443023243698 M390.790257199857 323.3364433120766 C417.89406105831955 296.8106475381031, 443.67662809286713 269.0764227010428, 473.2239592102776 240.88797199904454 M398.7675302546484 324.3032845481827 C424.1241339735979 297.30633003745226, 449.5222797697131 272.59643764760904, 481.2718948411741 240.59738637402307 M399.44407520607217 322.28365026178545 C418.0478055545992 302.30248314330885, 438.0497745139522 282.5743649622748, 481.2151070438921 239.46051291037944 M407.7912615718872 322.50481131432366 C439.8179876864245 294.8268102003592, 469.1559242553712 262.4582362580966, 488.8671431248046 238.9150078612685 M407.9600627313331 322.89052017257114 C432.49429180844163 297.6928286263633, 457.30297487965686 273.87782436608074, 490.4012943171858 240.59982573322844 M414.20595486425333 322.70018295481526 C449.99100154807076 289.26534110197093, 481.23604959013096 257.4923796628239, 498.8423617188279 239.77199365755493 M416.2919257977753 323.3432843118877 C436.7434729787293 302.9720986947359, 459.08891505645465 279.80764913595914, 499.3385634036032 239.05960455874146 M424.302146724744 322.43057851356957 C456.2419809202889 293.61372937154846, 485.09349671277994 261.43165773027573, 505.62911357113984 240.8689700027796 M424.4275754636788 321.90383016096865 C453.8267502721644 292.95287804658307, 481.31653199671746 263.8654940999292, 508.0279181542397 239.6915331587734 M434.2056007839531 321.64253525655914 C449.5944106563512 304.55750505486685, 468.2108999012088 287.82584187064305, 513.8131186476054 240.128486165106 M432.7881219600884 322.9596880110037 C458.9284120604393 297.1819532697403, 483.2924830767995 272.400078142496, 514.9058571802327 239.57079031733255 M441.5914799329207 322.46807761986514 C465.2714715498415 300.6873521221178, 486.24601009388846 278.4654499233959, 523.6297649992989 240.2621557111946 M442.04124264867727 323.3349305440091 C464.94171058469516 299.3348484808318, 487.0838882801166 276.1425434692625, 523.2760589237108 240.46543126880195 M451.57116334354123 324.0273224493016 C479.34661902393873 291.30260175500837, 510.5489019226639 260.96718000547753, 534.6667835311349 241.25872559548847 M450.944655109126 323.40302550527883 C481.16063736927947 290.91281258114685, 513.1078539232101 258.46374406417897, 533.0216970686862 240.29446915403884 M458.6793119010183 321.41443263526514 C491.3332109790713 289.7760822885981, 522.9317050039938 258.86817709407177, 542.9259743530863 241.062197082322 M459.2247711125179 322.32762429752114 C479.5539152309473 301.121864456488, 499.2463454801431 281.28756228944354, 540.3205193068513 240.4521674971345 M468.1291661384446 321.40517320841303 C486.73257729735303 302.9976124800892, 507.5562721411342 278.84079674860163, 551.4567501510221 238.16506727691564 M467.4858173677675 323.36107684061847 C497.63997384402535 290.34448970041433, 528.4267201793533 260.19557223176173, 549.6511011804107 240.6764709377224 M474.3505599137907 321.59077575278843 C494.7672215538405 303.2537487409831, 512.6559340346589 283.4120950982841, 556.6141085095494 241.7618398306907 M475.1447982294292 322.1884149575526 C498.9725696263351 299.81173812490545, 521.8000516658288 277.04568231581356, 558.0313472785651 239.29533320235126 M484.4809490634072 323.548391575513 C500.35422151929396 305.24509230761294, 520.2180157686463 287.2082496666515, 566.0237007120271 241.6261268380582 M483.8881303506526 323.206271068695 C503.74066056371015 302.197140705955, 522.5754686947697 284.397329018855, 565.7216610228484 240.78890829157052 M493.2672704706723 324.5899217368117 C515.9766870591292 303.1504787031027, 534.3920547459047 281.40930011034186, 573.4864177214973 241.5931303385287 M493.0176085569355 323.3145857950286 C522.8207423754982 290.8074299818161, 555.6895629567857 260.3298724029843, 575.1860253767964 240.6343542862531 M501.02651193628986 323.3520895643842 C528.7059578424426 294.9973258740265, 559.5386768765403 264.70079107731556, 581.110218630247 243.9046581125711 M501.4272055187015 322.95786289495715 C523.7603631836663 299.19231565382916, 546.2513572526161 276.98413924574413, 581.4981351860262 242.977974046694 M511.3983946872853 322.28594431887063 C527.5707063575148 304.3073342230025, 546.8428646119361 284.6846031348552, 581.800075106437 249.9427142049641 M508.70085241111207 323.49093255958644 C525.731809071654 308.2404759716434, 541.919180732147 290.8486283043586, 580.6550982980441 249.89472907723618 M518.7231698672654 322.37918610470206 C532.6835929923565 309.2434971368917, 545.5458732454923 293.4912125965179, 582.6698290804907 260.2044341071488 M518.0503110912232 322.48448062639415 C541.4870118753046 299.455411402049, 565.3120692265733 275.41358776531376, 581.6993796741112 258.8829988725032 M525.1660045826105 321.5527402316135 C549.0018638757815 303.2668815279965, 568.7653180187333 279.68213536638365, 581.579335154151 267.1982259337025 M526.8613133028332 323.5217481403396 C545.1917283678027 302.80783228074205, 564.4509919029232 285.10418737599974, 580.6373646131418 266.724261199653 M536.0722492111895 323.4822126701442 C546.8636705439245 307.43111438438996, 563.7175581368581 293.60538002543166, 581.2508409734309 275.70625595459325 M534.3134594905908 322.36126777324137 C549.6471548098938 308.43190336619233, 565.497267871945 291.2948667975879, 580.9964499880351 275.07500427861066 M545.2388637122409 323.38715755111735 C551.9891686659499 312.13221924915257, 562.7838766656849 303.9579394014415, 579.5726169547412 284.5174605848334 M542.90820411643 322.93864813602 C551.5229679825217 313.6026002030957, 558.4541327901673 306.7829422934798, 581.8074323401689 284.7253520286177 M553.2184716533416 324.68317491054853 C563.8833345873547 312.37424190285907, 573.9851177757139 300.5562741613337, 583.2325076252195 291.305535101832 M550.9705292949868 323.2894740316956 C562.1042177167434 312.1607410983636, 573.223729213545 302.00078266549014, 582.3583988669824 293.5719178325529 M561.7581646812555 322.8759732039212 C563.1585938887058 319.39985004865804, 570.9299722540089 312.3806079921977, 582.8470615525601 301.34311474261034 M560.6297797338682 323.4428393021314 C568.1979787390052 315.2424614762558, 575.5447638052639 306.5548231640414, 581.9464064481455 300.57264117687987 M568.2421861322464 322.2630409512212 C571.5113992877722 320.6541958885185, 577.4595736736238 313.61783868543466, 582.6814506774251 309.2685725563086 M569.5257909067062 322.0204961852096 C572.7957329377164 318.84196104719484, 575.3139305895 315.5215807575092, 581.0770448003922 309.1428285902265" fill="none" stroke="#F44336" stroke-width="2.5" stroke-linejoin="round"/>
<path d="M380.6703104025659 238.53369595026754 C423.9185953781299 241.39626825775096, 472.0339553733604 241.30399771181865, 578.662224503693 241.48768443466554 M380.5030651357841 239.97239562429047 C450.6780889337853 240.94270017969882, 519.6140997166061 240.98348501850325, 579.9061899960515 240.05572215867375 M578.9210436278058 238.26874402076393 C580.3050183745735 255.95131510117253, 579.6540839664779 275.43793481457965, 580.0801545207511 320.40046684913113 M579.185771965905 239.6940411304651 C578.6616305823349 261.95721299125233, 580.082059560764 282.35512322255227, 580.759966509429 320.96512929474335 M578.6537211527499 321.05448635543047 C529.3087824668136 321.2031362146584, 479.36127472302195 322.04618386077794, 381.40230985206045 319.6422729235503 M580.4129359964061 320.2098223152059 C529.676714670325 318.64623184283187, 479.8080447201688 319.8073127069123, 380.74207916283126 319.392347690512 M380.5934726924025 320.9171641117262 C382.2554412657282 293.31657556461676, 382.0412296715411 266.4601839886438, 378.959948568677 238.3918871825944 M380.9210845414296 320.4236517354088 C379.73004449457864 300.04008700308265, 379.7318903127991 282.31962700097756, 380.7833910142655 239.36882024692173" fill="none" stroke="#F44336" stroke-width="2.5" stroke-linejoin="round"/><rect x="384" y="244" width="192" height="72" fill="white" rx="6" opacity="0.85"/><text x="480" y="274" text-anchor="middle" font-size="28" font-weight="bold" fill="#F44336">💢 爆发态</text><text x="480" y="302" text-anchor="middle" font-size="18" fill="#999">Critical</text><path d="M740.3158005400377 239.68419945996214 C740.3158005400377 239.68419945996214, 740.3158005400377 239.68419945996214, 740.3158005400377 239.68419945996214 M740.3158005400377 239.68419945996214 C740.3158005400377 239.68419945996214, 740.3158005400377 239.68419945996214, 740.3158005400377 239.68419945996214 M740.8219118257769 247.05896413681376 C742.4140358438383 245.4547472555281, 746.9333224730359 240.2460745313711, 748.6171221706686 240.22733429273777 M739.9001722409986 247.83624446447666 C742.7959674067602 245.18890540494866, 744.8574165688055 242.84567329664043, 749.0200425380091 240.0109752382561 M742.3120554851424 256.036218730822 C746.5338029658504 251.49700080396332, 751.6094526948242 248.57005856010508, 757.1977857040393 239.86668891580325 M740.4887423250343 256.33335708021656 C746.9292422649128 251.10089476149034, 750.9422343125354 245.1713113631762, 757.8600771331311 240.05139266523665 M739.1720008449453 263.8197102871259 C745.3746051874376 259.3064366642605, 749.4254790161496 255.67198194247254, 767.7018005326511 239.62241201701323 M739.4858295810851 266.1349194038035 C747.2442092605844 258.9234112140758, 753.7568816964216 253.351576712836, 766.5657209142233 238.7631567839637 M740.4968003389869 273.53872861734504 C752.5888107350263 263.7295857815543, 762.5419933887018 250.75329068922187, 773.3213481284208 241.59068246109086 M741.2870907101146 273.01725983167216 C751.0241836992275 263.66001634598314, 761.0298542169561 251.89338741930868, 774.5497843473345 239.66362839420245 M738.7310051882611 281.6215256854953 C751.3770121945478 270.5903814037798, 766.3875721226713 255.1585159831678, 783.795951645456 238.78387270043302 M740.9241675708778 281.53858190072884 C750.9134979552708 271.60100608097054, 763.7606698554439 260.2832398883243, 782.9609642151814 240.51156713100343 M741.5553929042569 288.8112641227086 C750.1175487269428 278.97093374843786, 764.0702739556415 266.74913415716657, 791.706940111032 240.06348391308885 M740.5365513030893 290.6153782723059 C756.8054413345296 275.5017386594284, 772.3698299340656 258.9154587780672, 790.627261881412 239.96778311918828 M741.8047581817384 299.1563446149087 C760.7658979269253 278.8696528680529, 776.8310561574554 260.2187797057708, 800.7007096324837 240.9014783899553 M740.7704960835574 299.9576531615139 C754.3493401870164 285.30817677564164, 768.5282458600477 270.76780220637687, 800.4598688764864 239.32312406469524 M739.1014059173389 308.80407801462576 C764.7625532331836 280.60322235575495, 788.5488648384076 256.21110641441425, 809.3436847409049 238.6704631232485 M739.6523137555037 307.7804506983021 C759.1931882549553 287.1607652090156, 779.4846394387104 269.25952075095466, 807.2008899247701 239.91078560674177 M739.451360708923 314.9337522102515 C759.8106112135148 294.1840989857942, 782.6045720199737 271.7173373879245, 817.3920688401755 238.36395165503043 M739.7975430515382 316.7267579441853 C763.0850440249158 292.71195815371476, 785.1966572032445 270.3518776536493, 817.1221309839864 240.03450079036202 M741.1853370398803 323.9501842171029 C763.7843232824464 302.6821456454259, 785.4067316442114 281.5652283588948, 823.3250817226485 238.51454962544258 M742.1834915695091 322.4089959080008 C764.2400007645203 300.6959124979715, 786.9798103600373 278.9791572940815, 824.1810321541891 238.9524737046553 M749.5652416683552 321.6281887419461 C781.7047746985395 292.6735786240943, 808.5445907634586 261.9547173373053, 835.4943773140109 241.3056537562925 M750.6605201980874 323.2411129223014 C770.7132373890133 303.3218514988761, 790.5844985134466 283.17554110678117, 833.6466069474575 238.68480705231462 M759.6688063667276 324.267675664625 C788.364057246058 293.9778536375649, 813.1486912594771 266.33035690137365, 843.1394357228613 238.57774973566734 M758.887590321265 323.0363492074993 C778.3292584368985 302.18099577149394, 798.1694021580137 281.6464172595372, 842.8489806121377 238.87698109461743 M768.2051589109142 321.73820372210105 C800.4384197040821 288.70252147894934, 832.6254879603263 256.3512192457768, 851.5453271788934 240.15433196616618 M768.0898665953252 322.5446244101072 C792.8267878109225 296.5475907421952, 818.5725293272374 272.3500861597062, 850.1304769738891 238.7353508948216 M775.5556646514067 322.6942851152003 C797.1729730806446 300.0549740824089, 817.8775023635955 278.1135030044987, 861.0859780097495 238.38169154806047 M776.1135096789918 322.9910027996281 C802.5149029556807 296.93847320405405, 828.7606057699895 270.2835424482802, 859.8288992473506 239.53639552297383 M786.8331045744533 321.8408234747563 C802.4973330653919 304.1992734138034, 823.8870767975338 284.812440777293, 866.5339568279043 239.05037705412803 M784.7201249960267 321.66389726086015 C802.6970116689765 304.3841259205653, 821.2743380682614 284.41587267177346, 867.369256429364 239.66525952430663 M795.1106703587587 321.1763242096507 C825.1568016617458 289.3651038232248, 857.073752149323 259.79434616943206, 875.4128824268106 238.09445952546884 M793.7546240954704 322.8606348987364 C818.6477888722336 296.220830764264, 844.761375316967 270.0241150282939, 876.209550162667 240.33462706368783 M800.635450086068 323.4556367971452 C829.9102827944857 295.52717497438533, 857.6655874242515 265.8813281994788, 883.1277032455345 240.51820897001312 M802.7024089651021 321.8865480743453 C822.1753411458359 302.84640329487405, 840.3259304411228 283.9640021588839, 885.5596843307019 239.19500369108863 M811.5777624708687 324.08875210779837 C837.2811596557613 297.58147800456345, 862.0615785672653 271.28668937972503, 891.7258817763295 237.77898940109378 M809.4407741694328 321.7658201674071 C828.7004220820804 302.75087638282105, 847.8011748710118 283.95320760509196, 892.8099881385555 240.25247863918304 M817.3956337382738 323.5632784191017 C837.9130373464392 301.9504989422436, 856.8913098083841 283.6557292261575, 901.0944864670737 241.0452714307023 M818.9838634371363 321.68588663951954 C851.1395739358028 290.613671685949, 882.0476613136923 259.4659660621375, 901.8597040309334 240.17443874794498 M826.4108786375069 323.33139628430644 C859.5071789196679 290.9310544940063, 887.6337874507009 261.3901776449371, 909.5022419611769 239.65764583898638 M827.0663260409964 322.33968060553394 C856.5670139896802 293.3645321955116, 886.5745991580117 261.52580174196135, 909.2978193054558 239.17069569879945 M835.0772917139055 323.3677027181093 C858.6035453434084 300.40710696498076, 879.4891590914444 276.31458766096347, 919.0236970918894 239.96388595099978 M836.5419647876212 322.487244177538 C868.1278601754265 288.98487614704, 899.8438360170331 255.95027485751493, 918.7242097674263 239.16501286177783 M845.8138422478838 324.2662251522686 C865.0909062230057 299.840952629979, 888.6230738775014 277.2936500051814, 928.7043005352388 241.38586836538397 M843.7297890136181 322.16331925944047 C862.014757017376 304.6094554185328, 879.1265308128986 287.40110399369047, 927.5968882835136 238.94239074625216 M853.6959893689487 321.75426982862484 C870.4754449790697 304.50141222242087, 889.0232795176005 286.09691363727296, 937.4324138913537 238.04389123695904 M853.6322966196183 323.1731653834416 C881.7952179378645 293.27797592246804, 911.104175087057 263.50135178335586, 934.4795791900947 239.17045803662953 M862.7272919965619 323.52548224075434 C878.5250586126092 304.0783855810053, 896.6465956873151 287.3234706874981, 940.4748586569696 240.76157760571303 M860.8642311792267 321.6764996644714 C882.0551789517126 299.97435909077814, 903.5115415269079 279.6674979073956, 942.1769330107251 241.84026229783342 M870.5766529567292 321.68028232960035 C896.6778822090737 296.5326299565588, 924.3330243453083 268.5204579160994, 941.7970004022225 251.8611519817306 M870.1005540529758 322.17142908390645 C896.1516230774731 297.32153585323175, 920.3655025990993 271.9419191956531, 941.3677743260434 249.65098032225112 M878.071691072405 324.029432393963 C899.1090100813323 300.18754898985173, 920.8618917453562 279.1688786704888, 940.0673932336277 257.165210951242 M877.6556100438709 322.2962077077334 C901.0067545458257 298.0333962854856, 924.823612660081 274.228264392968, 940.9414108114273 258.68745580420864 M885.7826486109674 324.4111409114398 C908.6687974996494 301.67116497346774, 927.6911802319381 282.0408234482408, 939.8825075750046 265.66248027493134 M887.3203659576238 322.98382506857075 C904.9616026844793 303.7512499044099, 923.779072148305 286.7377008993938, 941.8598763748284 266.36412481733055 M895.2942430001743 324.11457617473883 C910.2501385285433 308.30303737988754, 923.5587702819425 293.0515584911159, 940.824582105911 275.8521769249298 M894.7203106108554 322.0539161920074 C908.1146616671182 311.43728857826864, 918.0290222600368 297.91455523375146, 942.4877742517871 275.4098927668739 M904.5751444367735 322.4156867722018 C910.2656442987426 312.4674814282205, 920.4456048724701 306.29613284977574, 943.0161036446971 282.8355306595787 M904.4044708329271 321.7264215892038 C915.807132388466 310.2153256380386, 928.971736795165 297.6288709072244, 941.9663508688398 283.4945552718426 M913.1612373300346 323.037373293261 C922.852944935073 314.3694336888793, 931.9465361847487 301.3950340221868, 943.6405563803157 291.5995226874331 M912.28220874198 322.01877048112243 C920.5565406775763 314.11426166776056, 929.3880754893326 306.59818263673543, 941.2508720892945 292.31397608905814 M920.7876093512253 323.3600569267886 C927.0049018279276 313.59062158055474, 934.7993567297681 308.5192904532429, 941.3334112749164 301.1452197112631 M921.0090698426878 322.84298320149657 C928.6022880228109 313.69941685879127, 937.0941743026594 307.17280200173843, 942.4855376181248 301.13448727575513 M928.4260054169446 322.07874555821746 C931.0131184953374 320.4007138775208, 935.4191605842697 315.94721106105123, 941.0959621610159 308.38080378778227 M928.5300669925793 322.38515196296976 C932.3465626094732 318.52388180530136, 935.7377307450562 315.56325107387005, 941.6616614928357 309.6309221851213" fill="none" stroke="#2196F3" stroke-width="2.5" stroke-linejoin="round"/>
<path d="M741.6959112424173 240.50240073512975 C808.6021372494139 241.40204220143627, 879.9870286910342 241.6400755501929, 938.7723194216888 241.48252370882648 M740.1313194955751 239.91811177502564 C804.3808847857154 238.21070229057625, 868.4411586881274 239.56309020447998, 940.2613603066198 239.67073512356694 M939.9593167811393 241.96357348466927 C942.0674167977434 269.53661881133297, 942.2195592640679 304.35172716993264, 940.0828245842087 321.79593071218653 M940.6044604348052 239.18025481875006 C939.4390357774797 267.8408004971782, 938.9594623498509 297.25547571259307, 940.2830570782601 320.73015132041377 M940.7057833398037 319.7925864092445 C878.3136661593588 319.2261563422566, 812.5152871789253 319.19378862803154, 738.333891226519 321.0603246711456 M940.0982103705403 320.745464756065 C878.9424693671128 319.8300763158178, 818.7887062034737 320.10733740446096, 740.5444562263475 319.45888372374117 M738.6688981002497 319.0771322014003 C738.4082761642126 296.5516953404418, 741.0473619811286 274.59148113483053, 741.9850771036218 239.8929318182415 M740.530475580678 319.3424349891348 C740.6442138569374 290.6419441549571, 740.5964654148646 260.8236704944561, 739.7202249514775 240.52609429645227" fill="none" stroke="#2196F3" stroke-width="2.5" stroke-linejoin="round"/><rect x="744" y="244" width="192" height="72" fill="white" rx="6" opacity="0.85"/><text x="840" y="274" text-anchor="middle" font-size="28" font-weight="bold" fill="#2196F3">🧊 冷冻态</text><text x="840" y="302" text-anchor="middle" font-size="18" fill="#999">Frozen</text><path d="M20.190296114372046 479.809703885628 C20.190296114372046 479.809703885628, 20.190296114372046 479.809703885628, 20.190296114372046 479.809703885628 M20.190296114372046 479.809703885628 C20.190296114372046 479.809703885628, 20.190296114372046 479.809703885628, 20.190296114372046 479.809703885628 M19.19481015660638 489.29204682054416 C23.411200417511402 484.8849289681989, 26.052499643325152 483.3190834083787, 28.75052134439346 480.872192745245 M20.60349775023735 488.8035430657159 C22.43480993037 486.29525261346754, 25.07037865301001 482.8492015314559, 28.459402777554676 480.39436030111284 M19.056110332618154 496.9521938533231 C26.0670710226597 492.125010405113, 32.58188044430344 486.55402517211627, 35.22163866501622 478.92424398035564 M20.705689452094738 495.81898227932345 C23.94043358601361 491.77195616790397, 28.792365782694556 487.7517242929026, 37.79629373769396 479.9184429316367 M21.891557994571656 503.4976557600006 C24.07940288526027 497.7625518551768, 32.18893861252057 495.2032280492026, 47.48194217374126 478.9670564961057 M20.83468768091684 505.92075363061844 C25.456749927341583 500.1685060323384, 31.008420953235767 495.639339373295, 45.015136966337835 479.0438540200424 M19.60046529433053 512.8698370892653 C30.373772438040543 506.6541637591366, 37.52546366165999 498.18297334357567, 52.240817648041805 481.5835525794669 M20.13759709897724 514.7488392673789 C28.582472293616473 505.0662849714232, 36.11418884949702 497.51603464381094, 54.52170164883625 480.1521224500924 M21.994013495462976 522.9371639257654 C28.9981283885025 510.90290692254285, 41.8011148909566 502.04036661237325, 64.20947989435872 479.9035573831319 M19.621403888554127 521.9016176761944 C37.02957950210466 507.5773806136761, 51.978465935043694 491.5766087310934, 61.81062780854353 480.22962582458626 M18.741776781159494 531.518248039536 C40.468863885847234 512.3139020008218, 58.27092898359801 491.1193217914697, 69.18300615911872 478.7702744422815 M20.175579158740575 529.9310651987789 C33.288317695072806 517.932669704622, 45.46024639296172 504.7957122105842, 70.69803184854769 478.8888610081233 M20.58009531184434 538.658586994468 C37.77438301668558 520.5369462156468, 57.55214901672024 500.6844821000933, 81.0184520614702 481.1210904959026 M20.861339959546008 538.2885841069028 C38.20911069838467 521.97106866728, 54.336163218245545 504.76426231813156, 80.09374654902905 479.90209141175734 M18.398263318967505 547.5259336416295 C46.47670444104757 523.1337353414958, 73.49688300960138 492.72443498008454, 86.6921103580205 479.8703445727657 M19.62638294093299 547.3072321057489 C47.67831929819361 521.9770339224212, 72.52904307107077 494.458271644311, 88.47025520146909 480.58649045539073 M19.82930950579394 555.3296233625659 C35.38625157127233 537.3670466655828, 53.54011638023354 520.3398294340454, 96.2633229314923 481.6071303819504 M19.2115451905715 556.6311606742751 C36.329191870830115 537.5559531820726, 54.69611933893052 521.756336150599, 96.52180370695342 480.25193890359157 M23.588402142274 559.00941556987 C52.82960491266729 534.1919001401018, 76.60532486659844 507.17763350943477, 104.49511429669649 479.25871077114414 M24.869384818931135 560.650406569264 C43.15072407393981 541.8775031171355, 61.46871943919147 523.051545796393, 105.99671085765134 479.2850200207959 M32.47587529263153 561.232042831787 C59.641258765376996 536.7021436227583, 83.21541651923329 509.82157580104314, 114.19546577245933 479.9253751753151 M33.36714225018562 560.0258064131627 C51.915477273339654 540.6505093286621, 71.24509083112879 521.3882329334111, 114.25769760731822 479.3103587688359 M41.89429624943736 560.4262371610373 C68.7349059205078 530.7722541836833, 99.68024742158778 503.1761643731836, 120.27492528431245 481.2654009830899 M41.55450143634831 560.0143730843812 C71.62113225030606 531.2501064450724, 101.20973416089404 501.95642013718293, 121.95135602542828 480.2312518481588 M47.97201253175736 558.9803742242599 C79.66506222337293 530.3646616693696, 109.81837709277461 503.490632996072, 128.5603075416293 481.5443578469825 M49.59757324625049 559.6647486152968 C81.35312449928263 529.4537125087078, 112.96019173176157 495.80050018054175, 131.358823915487 479.97434322491455 M59.32316621193889 560.5243728495104 C86.1300914948656 532.0195705569296, 112.42129730171504 504.9367747563909, 138.335049492029 479.89224395601 M57.77251050589089 559.5796907637592 C80.55563975727713 539.067127320812, 100.70760508765932 517.9420791369622, 139.90120181814126 480.0677065671525 M64.91133874174515 560.2136617210305 C84.16315971742257 544.9565727847346, 101.85321310824736 525.5863135470887, 148.06454290527023 480.7822826755673 M66.72120429381556 559.6605104624514 C89.6717322324859 539.8969636196146, 110.33272418161417 516.4998199981685, 148.4170316335427 479.481750679371 M73.79705596361539 559.7931058405227 C95.5358499704754 542.0876892215675, 112.37734768539396 522.8086413573794, 155.88769641670268 481.21049616152555 M74.63766855460383 561.2270751086514 C107.1173788673625 529.9269057705786, 137.41509472865542 496.83850852185356, 155.21859263615642 479.2184658795631 M82.56645309899557 558.8688221189237 C114.57089045675434 529.9073442101646, 142.56509671848283 503.5002406223248, 166.40527048420856 481.4123043559443 M83.87998186091995 559.823897186199 C114.8801000374307 530.4378598999392, 144.99923767202276 501.10800255975016, 164.24812232938797 480.45060785620643 M94.06795321028355 562.1923701177327 C115.08740045354125 540.0981393826688, 137.00151415188617 519.3118498421205, 174.18934549028864 479.37010554156797 M91.40261111046048 561.2701874381794 C120.01624830839226 534.5069229161329, 146.09926592952112 506.19052587171456, 173.62690978352626 480.73827012956104 M100.17390582406017 560.5272838912666 C122.52985423279497 542.4057283961222, 141.48200749381166 522.9401495567199, 181.9452890058311 479.7667747962446 M100.35787242654871 561.0423532775568 C122.28515011826114 537.957071899919, 144.68027981954228 517.8730734487939, 182.25809937585134 479.9640471733165 M109.39840160231576 559.6995131860608 C132.6043601160436 539.2770691565634, 153.60530857637715 514.2119944043884, 190.14846845607454 478.4789882105748 M110.11745075463917 559.5187987415914 C130.433086555605 539.2758281788366, 150.58805183473854 517.9193836375943, 189.66405234455047 478.9289675562837 M119.05640563359938 560.3995540932441 C147.43316517457433 529.6840133004363, 177.4701318876241 501.2721026292125, 198.2851483276799 481.3899943854732 M117.8767884766326 560.4669784266813 C137.5125200980029 539.9074633884048, 156.42717089100583 521.1500717736933, 197.85249501534344 478.8662279365893 M127.27248929760967 558.9633242977501 C152.98643019585467 532.6872303349691, 185.18830343356052 505.4855780643535, 207.8757712133145 480.9076209604809 M125.53405454877128 560.3266150393064 C146.87155441238005 540.0034008502898, 167.28587647318338 520.9848439116032, 207.1075200823183 479.9402303159222 M135.23871394282943 559.2923553407534 C160.62474600100876 535.8831367881265, 190.00687609698772 508.5792010990959, 214.05706571056055 479.7498477522833 M134.4788395660581 560.817220332119 C157.24316021592176 539.0833614692368, 180.75993124873742 514.5881367546884, 215.7959291843397 480.0939422270162 M141.86345752211855 561.4649260313832 C164.51151172277656 540.9222744578445, 184.08582176410408 521.0454706342233, 218.95368051032503 483.86648378165455 M142.93440040267996 559.8399137777034 C166.96721478396938 537.5377512264217, 190.48736214794548 514.6927507791299, 221.053894984071 484.0167744213424 M152.49739173705248 561.9767673195772 C177.54736035223968 531.4264675158305, 206.78227484965862 506.41636312835493, 221.30919777167102 491.1319952096619 M152.64939562938656 560.3233559853402 C169.4196947825661 543.0494149533259, 185.68996625427866 526.9479914876973, 219.69006290503586 492.6346534465495 M158.2592597535355 558.5271369349803 C184.5292453937721 535.0699518071261, 207.5719822854507 511.8033176150288, 221.4331319615894 499.724398294372 M159.2724306797144 559.440655374824 C183.19447438189167 536.1529120794341, 207.02136145289035 513.5042942639335, 220.2102236668417 500.80190414128003 M168.7247998620993 560.1400381311734 C183.8073936963066 548.6573847510776, 197.24403652348255 535.0305287658276, 220.5273513031821 510.71336701005504 M168.07355398240185 560.312098803087 C186.07811260287343 541.9661657532447, 204.50006628186364 524.351134635814, 220.4054446845748 509.7400680808315 M175.40093688399662 558.8121958634017 C186.21627368165844 550.890932564145, 195.44467935820964 540.2545300993024, 220.00968649856586 517.6511887512737 M177.05299902460104 559.9447573468152 C188.25358045965018 550.1379268009454, 197.6189105701895 539.5916071991891, 220.58561269126764 518.2199869747278 M185.2578441016009 562.3519246786678 C199.7313657706615 548.3459538020921, 214.14149514541305 534.0152090095015, 218.92341019168617 525.8650389531473 M186.04131950928897 560.7187634375135 C197.66072481228315 547.281253743344, 209.85018484496163 535.9680075280771, 219.85936291131944 526.7144099433099 M192.34407321180055 558.8164623078878 C202.1884153147903 549.6867198106545, 212.59558688747788 541.8243146802394, 219.07773969517626 536.0223401248815 M195.1127003185871 561.4151462247249 C202.7063736632446 551.0150689817737, 212.13322529799456 542.329356940149, 219.3486245235251 533.5285455470854 M201.28542890307423 562.1359848069822 C204.9550559589173 554.2739436632954, 212.0029012238674 553.1878689803913, 221.0955285668499 543.8300058713795 M202.76455773974223 559.434978710975 C206.1126609221449 556.4883392754588, 210.75853383597686 553.8076971555533, 221.0783808646553 542.9508056736646 M211.053599252782 561.6391735037321 C212.77978719523182 557.2379462019162, 215.5007172665253 556.6607704564382, 221.03515328377568 550.7841534010016 M211.74517040913295 560.5845478759842 C214.16399828133834 556.4777298809145, 218.25957762995563 553.5463222634444, 220.93108240212237 550.8488815125379" fill="none" stroke="#9C27B0" stroke-width="2.5" stroke-linejoin="round"/>
<path d="M21.685976738117702 481.2912964623163 C61.860622236067975 479.6031092279123, 101.79251821011046 477.29106942700105, 218.54791503304014 480.8885007262867 M19.60992515851125 479.5346180095128 C68.00691737744863 479.79063668725934, 117.57305261904766 481.03838856471106, 219.22281772433084 480.16553738225576 M219.76489782721757 479.2330870208482 C220.83476471986845 501.9467619511345, 220.1098307723884 525.0057030713059, 221.33717709397416 558.3043913665063 M220.55320514852164 479.49334068456426 C219.47258462969702 506.6589373267007, 219.0319313148112 531.5409381982632, 219.41671125769278 560.8829451478662 M220.51322723319768 560.8505865717235 C144.85370669736 559.7437680627911, 68.86475961803181 561.3181410284658, 19.722002159377126 559.2424529830513 M220.5897778086504 559.5599874906397 C156.1107408913722 558.3162929121963, 91.70639913328006 558.7766792931675, 19.144943345710534 560.4940588276879 M21.357698262366892 558.5356643749951 C19.663409777428033 541.6789096808, 19.620175459715107 520.5212789145966, 19.829433145808103 481.68359651334606 M20.555201639940208 559.4350946249701 C20.915282746744236 534.8991582693852, 20.163152487178067 510.1087399920765, 20.878668387721774 480.7569794145561" fill="none" stroke="#9C27B0" stroke-width="2.5" stroke-linejoin="round"/><rect x="24" y="484" width="192" height="72" fill="white" rx="6" opacity="0.85"/><text x="120" y="514" text-anchor="middle" font-size="28" font-weight="bold" fill="#9C27B0">🌧️ 阴天态</text><text x="120" y="542" text-anchor="middle" font-size="18" fill="#999">Unstable</text><path d="M740.1076477383247 479.8923522616752 C740.1076477383247 479.8923522616752, 740.1076477383247 479.8923522616752, 740.1076477383247 479.8923522616752 M740.1076477383247 479.8923522616752 C740.1076477383247 479.8923522616752, 740.1076477383247 479.8923522616752, 740.1076477383247 479.8923522616752 M739.62257874013 487.7309260853499 C741.1019061020753 486.5224671339061, 743.5513352639788 484.02714409765116, 747.6467362635868 480.0944623373508 M739.8297470872949 487.93368128583154 C742.0726376810863 487.0492936482628, 744.179740606246 485.0752824077229, 748.9597525346868 479.6061121250334 M741.6363048764157 495.31847144986483 C746.5308368726301 490.7708559642733, 749.8537280602195 485.08968876266783, 756.0963747543898 480.8650449919167 M740.0986260760843 497.74287668313303 C746.8778729720551 491.5521287049079, 751.7678196208717 485.5333920796926, 756.4139395891104 480.66306187065527 M740.7677798166927 505.61204356728376 C745.9300103480393 499.2715825434052, 754.2138327237647 492.4039352735271, 765.5248412815723 479.41584616665455 M740.0288935053392 505.4756253874642 C746.8300656662927 497.2902682351937, 754.3522335018257 490.89832064557163, 764.6757468747015 480.1986248268066 M738.2697992245697 512.1637861426002 C752.8096066908561 501.178841753945, 764.5408213396173 486.322457106064, 773.4106120664377 481.83902325733806 M739.1433566977186 514.1371147802766 C750.3377607827512 503.5979087481275, 760.1587387548814 494.89318435073614, 774.3515995817876 479.2499342074213 M739.9885589029359 522.0087947246077 C756.937878694837 506.37232176040806, 774.1118252561607 487.1831132313273, 782.3126686853943 478.14213338144407 M740.0780272195252 521.4272697009867 C752.088982745732 510.6539283493922, 763.8298099704606 497.48532488369693, 783.0696563951686 480.7292706572922 M740.6554002111033 530.7880481400094 C752.8812658691462 520.0849450167265, 762.5466095692169 508.92853594085864, 790.176342975716 479.5350403395374 M739.6437925667221 531.5445476297646 C758.2667212988417 513.6539243070351, 776.4797059431309 494.4990631655365, 790.9103157320693 480.46113616918507 M741.6717743343688 540.8718696256792 C751.8626052514336 527.7658161070948, 763.9427440233657 512.6898100402839, 797.9879077240693 481.8788458095119 M740.790309860931 539.3545484715928 C753.9234078629772 524.0365487618113, 770.6135662855462 508.8697995332192, 799.2923003361393 479.62192558645023 M741.8052902427356 549.2165633639597 C756.4578520133575 530.7700285019845, 775.6716767860198 514.4559539276921, 808.7249793762317 479.6439160483489 M739.4992972428765 548.1377357199945 C757.1576337960732 531.8417184612059, 772.868543256535 514.2947883947559, 808.5095932262884 480.33033565147076 M739.9156960734205 558.1208310826145 C765.0267944561352 529.9938237088572, 792.0584088665128 505.24605864389594, 818.2201089736694 481.8154557357117 M739.5966598766855 557.1261653784778 C763.6929142911827 531.4479794631885, 788.8369290792647 507.0777213057122, 815.9479411730038 479.5423767696509 M743.4687827305006 561.374810791386 C767.9926079788644 535.3313663973748, 793.3675309109923 509.18437317484734, 823.0540880271922 478.5231191427037 M744.9496348941062 560.4965749408666 C763.4016951540727 541.8678629649072, 782.0728011966046 521.2963478045663, 825.6920645382921 480.0426571174746 M754.4516059531046 560.6233038453927 C785.6539382009984 528.9483435729949, 815.6567421421939 499.10630325453263, 833.3943476686597 479.7995605112619 M753.5807697589174 559.7989822007793 C772.3077284356559 540.0024111156251, 793.2834080986064 521.1302021802559, 834.4445556770618 480.11741315787856 M759.405077057701 559.1069099662449 C784.9031779050439 537.9863366191796, 805.641279320015 515.9250652195191, 842.8745531365457 481.34548588679166 M760.5404638522432 561.3823812183724 C791.2161515362445 529.0316785100789, 821.3439351884036 500.2029393786134, 841.5579064847688 480.67836858032206 M771.1786433492098 558.7440244048863 C794.3052084293779 532.59342074742, 823.5846505686294 507.7440334704186, 852.2769501054669 478.97314034990063 M770.5457197999687 560.5366273649938 C800.5260736303328 531.0961623252073, 830.9248750901705 500.96729256337244, 850.84587160442 479.93877730745066 M778.5670667735344 559.1804500394497 C793.6400985474671 544.3466242854777, 812.5632995744427 526.9437338046106, 858.0617216829453 479.5925358898038 M778.553291765191 560.1809936835442 C796.0503151921018 544.2676364319599, 811.0343288106262 527.5830161254952, 859.5533413664267 480.3189841262949 M785.1794273447919 560.3003560278986 C803.0499232030529 544.5538819239838, 819.706267697136 529.2509914608362, 865.8654353234158 477.96163232530597 M786.9431728355856 560.9714149874442 C808.1781952756857 539.7081342402441, 829.1183452064714 517.5665253835657, 867.3385325136758 480.3440393155921 M796.3747795935113 561.7017655588938 C826.1788072671872 532.0557673822318, 854.6611613947081 503.6458676640328, 877.6927489596643 481.1923169130679 M794.562747561603 559.7367488555566 C813.8160126784117 542.3131735363924, 831.9959179552033 522.8313476934347, 875.6743484395136 480.46666941527144 M802.2255156715655 561.676779626219 C821.6700820786963 542.6965831426608, 836.8228444601228 527.2846254618737, 884.2838048237832 478.97766746948474 M804.2756350003931 561.1381150070063 C823.957379011911 542.2873860362446, 842.854413351871 523.4073157548984, 883.6594724892337 480.7551274672169 M812.6769258177089 561.5910085726514 C840.7728144471992 530.7511877992197, 867.2279335818187 505.09525604315684, 892.1969880350823 480.80770942175485 M811.4695923474079 560.6050633082726 C841.6421029313447 533.1367046765545, 869.9420125831926 502.7882380896417, 893.1558475151081 478.9326229742834 M820.9434389643911 560.1208195990145 C848.335096395395 532.4854483785209, 878.9967756766666 501.78433057461524, 900.7474221467046 478.2109362856216 M820.1586021358618 561.1073348928069 C853.8343842876272 527.5905317561042, 883.9502825569792 498.07922491812553, 901.4123771502542 480.80037620636404 M829.6731799312428 562.1842638069453 C852.2676408381324 537.9039530918006, 871.7434670613735 514.9162261280657, 910.8728225418836 478.01689058667216 M828.8843591600279 560.1967887964274 C850.3089927597244 539.117277144029, 872.622056559822 516.9706076224442, 909.976372023684 479.1293562596241 M838.9130995222882 561.3997277769298 C867.0493075646641 529.8824992152971, 896.5698767923185 501.29800099146286, 918.9389600577664 478.50608027304224 M837.0680430422648 560.1762352834272 C860.6880205816067 539.918755848306, 882.0995143980344 517.5655671099782, 917.9631236060169 478.8979712101036 M846.8562648204539 560.1260705145435 C872.7110502295296 532.9925659449079, 897.5731014141872 509.01489529397685, 926.5380735560325 479.22514900449363 M845.8330266579628 560.6588406562657 C871.0381928491934 535.6785079561863, 893.0581277293932 512.5987098350005, 926.6261616415314 480.3472918591927 M855.0202853238354 560.0236428415244 C881.2908282220088 533.9843797138204, 907.3000942701844 508.63313848705025, 933.6922059352808 479.5580936700209 M855.1261515895822 560.185293694087 C874.2760163749471 539.7561565056818, 893.7247483483202 520.5823882814051, 934.951320013633 480.36198249930527 M864.4200616065406 560.8821262635515 C885.7964973749332 538.1854065747173, 905.6511157682484 517.4296149576489, 938.4667468237352 481.95231819216343 M862.6363176472333 560.1806668474109 C884.5054622833626 537.9259852570058, 906.3449763378809 516.7013428799572, 939.9549297612161 483.136970580126 M870.3706244350291 558.57787262454 C893.3339796157566 539.4186000684736, 909.0759502860518 519.6466509311688, 938.8853302277973 490.40519101384007 M872.4858803348615 560.0184523719444 C897.1090629017256 536.4342170571148, 921.2572002151431 512.4745486089074, 939.8405187096066 492.55708922893604 M881.7672889081076 558.6610241016411 C897.0008128586503 542.568139809087, 912.829901580532 530.491743909978, 939.9964892157165 499.38654548983726 M880.765924655255 559.8511060624148 C902.55584024574 536.9196385772814, 926.2932956193754 515.1072306901302, 940.0918099016832 500.86718881609534 M889.0959510017461 560.0572231463317 C904.698648039407 542.8073113392071, 924.5122202453173 523.8195146222193, 939.8016503905518 508.33322571222106 M889.1498572280855 560.8590630703598 C904.9236552312292 544.7261256833298, 920.4352284215232 527.6696329965956, 940.1356962150824 509.528076475688 M898.8124481323197 560.9355100492342 C909.7563356776714 550.1753371067683, 920.1067601487856 536.4451401369232, 941.0298311152364 518.9324925475131 M897.6694347640694 561.0942366945069 C912.7554779712863 544.569979327588, 928.272997224979 527.8111068961441, 940.9147296963351 517.6640612053588 M906.8793487974901 561.9469306501464 C911.8111334190224 554.3140173283604, 919.9407402315228 545.3733118719299, 941.7881904572588 524.715934496774 M904.790533630908 560.283242245603 C912.4775835677086 552.7386865864687, 921.9349599989492 545.3764166649893, 941.0672595034407 525.4690797444139 M913.5841545886015 561.7756324541255 C920.839683518129 553.0754599265936, 931.284196333514 543.8936784461738, 940.8124438297995 534.6091330402598 M914.1742704685039 559.84269270527 C920.2866892538519 553.0881883915741, 926.775882306247 546.920287998068, 940.1737907890578 534.9298165361263 M921.7079970361142 561.9321062649299 C928.0653325910093 555.6538053878352, 933.0936448076978 553.6580316439072, 938.3830371175629 542.890798303821 M922.0489113797416 560.1979604732272 C926.2689489758227 556.4226715983198, 930.2193068142957 552.6919979628894, 940.4264739485466 542.2534580785687 M931.270882990574 560.9504473083332 C933.4108998476825 556.8717476189153, 935.376030979397 556.6521335013571, 939.9023713470388 550.8745720036486 M931.290495112643 560.2371137050329 C934.5174173974982 556.9309096976237, 938.1617333506667 554.0695023069054, 940.4274251210556 550.8302562296676" fill="none" stroke="#4CAF50" stroke-width="2.5" stroke-linejoin="round"/>
<path d="M739.7958438375819 478.7349496163056 C781.5189660353585 481.13383028293975, 826.2200075412845 480.7785876025379, 940.765127063111 479.4083051396972 M739.9149093883127 479.2849617049092 C813.4048759014856 479.98585899380964, 885.3430321794774 479.8974239568717, 940.7532645580254 479.5865585267365 M938.8977943679146 480.84226637375605 C937.8714380605188 502.59539621187827, 938.0074348646152 525.9754245490503, 938.5144414404238 560.8056308609077 M940.0694688129499 479.91289956858895 C939.5838474975101 497.785964921363, 939.0121398516525 514.0738046077238, 940.1628078636735 560.9797363910661 M941.1652390216839 558.6620723982296 C891.5658309174145 560.9123353610869, 839.0849170779823 560.1238347134154, 740.1262362107241 558.7714636230406 M939.8657946313583 560.4667087828694 C861.9402348030058 560.8580161575329, 785.4039708217756 560.729569806146, 740.609153128467 559.5256589672507 M741.0996622061713 559.4816656888019 C741.2168818550342 541.3363722351061, 741.124170953838 522.1589150952514, 740.5581907759055 478.33832172138597 M740.0233843662915 560.345463517938 C740.3141306871756 532.5856141870863, 739.746252546577 504.0162691234095, 740.0770207972797 479.1868139817196" fill="none" stroke="#4CAF50" stroke-width="2.5" stroke-linejoin="round"/><rect x="744" y="484" width="192" height="72" fill="white" rx="6" opacity="0.85"/><text x="840" y="514" text-anchor="middle" font-size="28" font-weight="bold" fill="#4CAF50">😌 平静态</text><text x="840" y="542" text-anchor="middle" font-size="18" fill="#999">恢复</text><path d="M400.76482068219457 100.74054056684336 C315.6890788677718 154.71513180390943, 231.51562442545216 211.98579632501935, 189.53527475722964 240.8840321405404 M399.52819419037695 100.27519505205508 C319.77170613128544 154.06719490016002, 240.81199539883357 206.82432168054805, 189.93277420399642 240.51947979450216" fill="none" stroke="#FF9800" stroke-width="2.5" stroke-linejoin="round"/><polygon points="190,240 197.57155468414092,230.69024384502669 201.5057574831065,236.59154804347503" fill="#FF9800" opacity="0.8"/><rect x="245" y="145" width="110" height="28" rx="4" fill="white" opacity="0.92"/><text x="300" y="164" text-anchor="middle" font-size="20" font-weight="bold" fill="#FF9800">❶ 忽视预警</text><path d="M438.78165463064227 101.22667842302862 C396.8104139784211 127.96923800950569, 356.8737288112141 157.15076883791386, 240.13119888329956 239.0377635750979 M440.4016800629757 100.58306353868325 C398.49984854052883 129.5695222013882, 355.9309836394367 158.2310994705974, 239.54129955915877 239.7130974213501" fill="none" stroke="#FF9800" stroke-width="2.5" stroke-dasharray="8,4" stroke-linejoin="round"/><polygon points="240,240 247.3580692345145,230.52061093001817 251.42534228696442,236.33100100494661" fill="#FF9800" opacity="0.8"/><rect x="290" y="125" width="140" height="28" rx="4" fill="white" opacity="0.92"/><text x="360" y="144" text-anchor="middle" font-size="20" font-weight="bold" fill="#FF9800" opacity="0.7">❷ "你随意吧"</text><path d="M218.85901055171777 278.40150732479583 C279.0926553229115 279.81564556765704, 338.96207839254583 278.51956094691127, 380.3429557851486 279.3387835789102 M219.57796088088912 280.06924325897114 C277.49869273538945 279.1017452831218, 335.9153360945262 278.8352087480942, 380.54037974200287 279.3422443043016" fill="none" stroke="#F44336" stroke-width="2.5" stroke-linejoin="round"/><polygon points="380,280 368.53596213049275,283.5462424799361 368.53596213049275,276.4537575200639" fill="#F44336" opacity="0.8"/><rect x="252" y="258" width="110" height="28" rx="4" fill="white" opacity="0.92"/><text x="307" y="277" text-anchor="middle" font-size="20" font-weight="bold" fill="#F44336">❸ 继续忽视</text><path d="M578.7125941640433 281.4432875725119 C636.7234019455036 281.7671099030342, 691.4526868280858 280.3113205397446, 740.3755768288717 281.5228997023797 M579.4857811385953 279.65537444398547 C623.7579620121215 279.0834689752123, 669.1117274813249 279.4671357794501, 740.3500873425724 280.09960247309925" fill="none" stroke="#2196F3" stroke-width="2.5" stroke-linejoin="round"/><polygon points="740,280 728.5359621304927,283.5462424799361 728.5359621304927,276.4537575200639" fill="#2196F3" opacity="0.8"/><rect x="604" y="258" width="110" height="28" rx="4" fill="white" opacity="0.92"/><text x="659" y="277" text-anchor="middle" font-size="20" font-weight="bold" fill="#2196F3">❹ 无人劝阻</text><path d="M399.9170378258583 320.57295675663903 C356.0224724389125 353.79832896891367, 313.55462157590017 385.77600758123384, 189.27486841135538 479.6001079978816 M399.99612522561125 319.8768315378614 C339.11558796196294 366.70325031189697, 278.827285287688 412.5364899409455, 190.0383552481036 480.10577626001486" fill="none" stroke="#9C27B0" stroke-width="2.5" stroke-linejoin="round"/><polygon points="190,480 196.9696831664177,470.2315038742008 201.26803555570206,475.87309138513655" fill="#9C27B0" opacity="0.8"/><rect x="230" y="375" width="110" height="28" rx="4" fill="white" opacity="0.92"/><text x="285" y="394" text-anchor="middle" font-size="20" font-weight="bold" fill="#9C27B0">❺ 道歉失败</text><path d="M190.47617417553434 498.8223122177683 C234.24382261427886 464.6587026897569, 277.1725331176936 427.8647564370008, 399.2256441088481 320.8160157364877 M189.46153296314318 500.21623639015235 C247.0805178327199 452.096567641248, 304.21614433667145 403.5373347185945, 399.9989984514609 319.65211411756854" fill="none" stroke="#F44336" stroke-width="2.5" stroke-linejoin="round"/><polygon points="400,320 393.60371757193633,330.1532049669276 388.98798954368533,324.76818893396813" fill="#F44336" opacity="0.8"/><rect x="340" y="395" width="110" height="28" rx="4" fill="white" opacity="0.92"/><text x="395" y="414" text-anchor="middle" font-size="20" font-weight="bold" fill="#F44336">❻ 二次爆发</text><text x="340" y="460" text-anchor="middle" font-size="24" fill="#F44336" font-weight="bold">↻ 死循环</text><path d="M841.4404110876835 320.71716896205965 C841.735079901958 365.7828375273329, 842.5607006190423 411.069706798565, 840.573066849934 479.9703814949693 M839.9315269241896 319.29900241094816 C838.7341663015031 365.37227534052914, 839.2678969234292 411.12953964933666, 839.3630033654329 480.24194853595907" fill="none" stroke="#4CAF50" stroke-width="2.5" stroke-linejoin="round"/><polygon points="840,480 836.453757520064,468.53596213049275 843.546242479936,468.53596213049275" fill="#4CAF50" opacity="0.8"/><rect x="850" y="380" width="110" height="28" rx="4" fill="white" opacity="0.92"/><text x="905" y="399" text-anchor="middle" font-size="20" font-weight="bold" fill="#4CAF50">❼ 自行恢复</text><path d="M220.16867118241163 520.4530167313227 C328.0039706301781 521.3552804215946, 435.37950491496224 521.560761781379, 740.249299903444 519.7735880101701 M219.782352376038 519.7698656005222 C421.89291519732296 520.1482742390947, 624.0130287436662 520.2742908855668, 740.2181427213419 519.8347095779949" fill="none" stroke="#4CAF50" stroke-width="2.5" stroke-dasharray="8,4" stroke-linejoin="round"/><polygon points="740,520 728.5359621304927,523.546242479936 728.5359621304927,516.453757520064" fill="#4CAF50" opacity="0.8"/><rect x="410" y="530" width="150" height="28" rx="4" fill="white" opacity="0.95" stroke="#4CAF50" stroke-width="1.5"/><text x="485" y="549" text-anchor="middle" font-size="20" font-weight="bold" fill="#4CAF50">❽ 认真哄好了 ✓</text></svg>